<mxfile host="Electron" modified="2023-12-12T20:36:31.920Z" agent="Mozilla/5.0 (Windows NT 10.0; Win64; x64) AppleWebKit/537.36 (KHTML, like Gecko) draw.io/22.1.2 Chrome/114.0.5735.289 Electron/25.9.4 Safari/537.36" etag="vVF59PiNENrS5malxwfT" version="22.1.2" type="device">
  <diagram name="Page-1" id="_LUAb5K6mEwRK8QXRn0H">
    <mxGraphModel dx="1111" dy="1104" grid="1" gridSize="10" guides="1" tooltips="1" connect="1" arrows="1" fold="1" page="1" pageScale="1" pageWidth="850" pageHeight="1100" math="0" shadow="0">
      <root>
        <mxCell id="0" />
        <mxCell id="1" parent="0" />
        <mxCell id="2zz1_mVkn2yC-SG665zC-31" value="&lt;b&gt;LUT_LOG&lt;/b&gt;&lt;br&gt;Dual ROM&lt;br&gt;16x4" style="rounded=0;whiteSpace=wrap;html=1;" vertex="1" parent="1">
          <mxGeometry x="80" y="40" width="130" height="170" as="geometry" />
        </mxCell>
        <mxCell id="2zz1_mVkn2yC-SG665zC-32" value="&lt;b&gt;LUT_ALOG&lt;/b&gt;&lt;br&gt;ROM&lt;br&gt;16x4" style="rounded=0;whiteSpace=wrap;html=1;" vertex="1" parent="1">
          <mxGeometry x="570" y="40" width="130" height="170" as="geometry" />
        </mxCell>
        <mxCell id="2zz1_mVkn2yC-SG665zC-33" value="&lt;b&gt;LUT_MOD15&lt;br&gt;&lt;/b&gt;ROM&lt;br&gt;32x4" style="rounded=0;whiteSpace=wrap;html=1;" vertex="1" parent="1">
          <mxGeometry x="340" y="40" width="130" height="170" as="geometry" />
        </mxCell>
        <mxCell id="2zz1_mVkn2yC-SG665zC-34" value="Addr_0" style="text;html=1;strokeColor=none;fillColor=none;align=center;verticalAlign=middle;whiteSpace=wrap;rounded=0;" vertex="1" parent="1">
          <mxGeometry x="80" y="40" width="60" height="30" as="geometry" />
        </mxCell>
        <mxCell id="2zz1_mVkn2yC-SG665zC-53" style="edgeStyle=orthogonalEdgeStyle;rounded=0;orthogonalLoop=1;jettySize=auto;html=1;entryX=0.75;entryY=0;entryDx=0;entryDy=0;" edge="1" parent="1" source="2zz1_mVkn2yC-SG665zC-35" target="2zz1_mVkn2yC-SG665zC-51">
          <mxGeometry relative="1" as="geometry">
            <Array as="points">
              <mxPoint x="254" y="55" />
            </Array>
          </mxGeometry>
        </mxCell>
        <mxCell id="2zz1_mVkn2yC-SG665zC-55" value="/4" style="edgeLabel;html=1;align=center;verticalAlign=middle;resizable=0;points=[];" vertex="1" connectable="0" parent="2zz1_mVkn2yC-SG665zC-53">
          <mxGeometry x="0.737" y="1" relative="1" as="geometry">
            <mxPoint y="-2" as="offset" />
          </mxGeometry>
        </mxCell>
        <mxCell id="2zz1_mVkn2yC-SG665zC-35" value="Dout_0" style="text;html=1;strokeColor=none;fillColor=none;align=center;verticalAlign=middle;whiteSpace=wrap;rounded=0;" vertex="1" parent="1">
          <mxGeometry x="150" y="40" width="60" height="30" as="geometry" />
        </mxCell>
        <mxCell id="2zz1_mVkn2yC-SG665zC-36" value="Addr" style="text;html=1;strokeColor=none;fillColor=none;align=center;verticalAlign=middle;whiteSpace=wrap;rounded=0;" vertex="1" parent="1">
          <mxGeometry x="570" y="60" width="60" height="30" as="geometry" />
        </mxCell>
        <mxCell id="2zz1_mVkn2yC-SG665zC-37" value="Dout" style="text;html=1;strokeColor=none;fillColor=none;align=center;verticalAlign=middle;whiteSpace=wrap;rounded=0;" vertex="1" parent="1">
          <mxGeometry x="640" y="60" width="60" height="30" as="geometry" />
        </mxCell>
        <mxCell id="2zz1_mVkn2yC-SG665zC-38" value="Addr" style="text;html=1;strokeColor=none;fillColor=none;align=center;verticalAlign=middle;whiteSpace=wrap;rounded=0;" vertex="1" parent="1">
          <mxGeometry x="340" y="60" width="60" height="30" as="geometry" />
        </mxCell>
        <mxCell id="2zz1_mVkn2yC-SG665zC-58" style="edgeStyle=orthogonalEdgeStyle;rounded=0;orthogonalLoop=1;jettySize=auto;html=1;entryX=0;entryY=0.5;entryDx=0;entryDy=0;" edge="1" parent="1" source="2zz1_mVkn2yC-SG665zC-39" target="2zz1_mVkn2yC-SG665zC-36">
          <mxGeometry relative="1" as="geometry" />
        </mxCell>
        <mxCell id="2zz1_mVkn2yC-SG665zC-59" value="/4" style="edgeLabel;html=1;align=center;verticalAlign=middle;resizable=0;points=[];" vertex="1" connectable="0" parent="2zz1_mVkn2yC-SG665zC-58">
          <mxGeometry y="2" relative="1" as="geometry">
            <mxPoint as="offset" />
          </mxGeometry>
        </mxCell>
        <mxCell id="2zz1_mVkn2yC-SG665zC-39" value="Dout" style="text;html=1;strokeColor=none;fillColor=none;align=center;verticalAlign=middle;whiteSpace=wrap;rounded=0;" vertex="1" parent="1">
          <mxGeometry x="410" y="60" width="60" height="30" as="geometry" />
        </mxCell>
        <mxCell id="2zz1_mVkn2yC-SG665zC-47" style="edgeStyle=orthogonalEdgeStyle;rounded=0;orthogonalLoop=1;jettySize=auto;html=1;entryX=0;entryY=0.5;entryDx=0;entryDy=0;" edge="1" parent="1" source="2zz1_mVkn2yC-SG665zC-40" target="2zz1_mVkn2yC-SG665zC-45">
          <mxGeometry relative="1" as="geometry">
            <Array as="points">
              <mxPoint x="70" y="225" />
              <mxPoint x="70" y="75" />
            </Array>
          </mxGeometry>
        </mxCell>
        <mxCell id="2zz1_mVkn2yC-SG665zC-49" value="/4" style="edgeLabel;html=1;align=center;verticalAlign=middle;resizable=0;points=[];" vertex="1" connectable="0" parent="2zz1_mVkn2yC-SG665zC-47">
          <mxGeometry x="-0.8889" y="-1" relative="1" as="geometry">
            <mxPoint as="offset" />
          </mxGeometry>
        </mxCell>
        <mxCell id="2zz1_mVkn2yC-SG665zC-40" value="&lt;b&gt;&lt;font color=&quot;#66cc00&quot; style=&quot;font-size: 14px;&quot;&gt;in_1&lt;/font&gt;&lt;/b&gt;" style="text;html=1;align=center;verticalAlign=middle;resizable=0;points=[];autosize=1;strokeColor=none;fillColor=none;" vertex="1" parent="1">
          <mxGeometry y="210" width="50" height="30" as="geometry" />
        </mxCell>
        <mxCell id="2zz1_mVkn2yC-SG665zC-48" style="edgeStyle=orthogonalEdgeStyle;rounded=0;orthogonalLoop=1;jettySize=auto;html=1;entryX=0;entryY=0.5;entryDx=0;entryDy=0;exitX=1;exitY=0.6;exitDx=0;exitDy=0;exitPerimeter=0;" edge="1" parent="1" source="2zz1_mVkn2yC-SG665zC-41" target="2zz1_mVkn2yC-SG665zC-34">
          <mxGeometry relative="1" as="geometry">
            <mxPoint x="50" y="170" as="sourcePoint" />
            <Array as="points">
              <mxPoint x="60" y="188" />
              <mxPoint x="60" y="55" />
            </Array>
          </mxGeometry>
        </mxCell>
        <mxCell id="2zz1_mVkn2yC-SG665zC-50" value="/4" style="edgeLabel;html=1;align=center;verticalAlign=middle;resizable=0;points=[];" vertex="1" connectable="0" parent="2zz1_mVkn2yC-SG665zC-48">
          <mxGeometry x="-0.8282" y="3" relative="1" as="geometry">
            <mxPoint as="offset" />
          </mxGeometry>
        </mxCell>
        <mxCell id="2zz1_mVkn2yC-SG665zC-41" value="&lt;b&gt;&lt;font color=&quot;#66cc00&quot; style=&quot;font-size: 14px;&quot;&gt;in_0&lt;/font&gt;&lt;/b&gt;" style="text;html=1;align=center;verticalAlign=middle;resizable=0;points=[];autosize=1;strokeColor=none;fillColor=none;" vertex="1" parent="1">
          <mxGeometry y="170" width="50" height="30" as="geometry" />
        </mxCell>
        <mxCell id="2zz1_mVkn2yC-SG665zC-42" value="&lt;b&gt;&lt;font color=&quot;#ff0000&quot; style=&quot;font-size: 14px;&quot;&gt;out_0&lt;/font&gt;&lt;/b&gt;" style="text;html=1;align=center;verticalAlign=middle;resizable=0;points=[];autosize=1;strokeColor=none;fillColor=none;" vertex="1" parent="1">
          <mxGeometry x="750" y="60" width="60" height="30" as="geometry" />
        </mxCell>
        <mxCell id="2zz1_mVkn2yC-SG665zC-45" value="Addr_1" style="text;html=1;strokeColor=none;fillColor=none;align=center;verticalAlign=middle;whiteSpace=wrap;rounded=0;" vertex="1" parent="1">
          <mxGeometry x="80" y="60" width="60" height="30" as="geometry" />
        </mxCell>
        <mxCell id="2zz1_mVkn2yC-SG665zC-52" style="edgeStyle=orthogonalEdgeStyle;rounded=0;orthogonalLoop=1;jettySize=auto;html=1;entryX=0.25;entryY=0;entryDx=0;entryDy=0;" edge="1" parent="1" source="2zz1_mVkn2yC-SG665zC-46" target="2zz1_mVkn2yC-SG665zC-51">
          <mxGeometry relative="1" as="geometry">
            <Array as="points">
              <mxPoint x="224" y="75" />
              <mxPoint x="224" y="195" />
              <mxPoint x="225" y="195" />
            </Array>
          </mxGeometry>
        </mxCell>
        <mxCell id="2zz1_mVkn2yC-SG665zC-54" value="/4" style="edgeLabel;html=1;align=center;verticalAlign=middle;resizable=0;points=[];" vertex="1" connectable="0" parent="2zz1_mVkn2yC-SG665zC-52">
          <mxGeometry x="0.6584" y="-1" relative="1" as="geometry">
            <mxPoint as="offset" />
          </mxGeometry>
        </mxCell>
        <mxCell id="2zz1_mVkn2yC-SG665zC-46" value="Dout_1" style="text;html=1;strokeColor=none;fillColor=none;align=center;verticalAlign=middle;whiteSpace=wrap;rounded=0;" vertex="1" parent="1">
          <mxGeometry x="150" y="60" width="60" height="30" as="geometry" />
        </mxCell>
        <mxCell id="2zz1_mVkn2yC-SG665zC-56" style="edgeStyle=orthogonalEdgeStyle;rounded=0;orthogonalLoop=1;jettySize=auto;html=1;entryX=-0.008;entryY=0.212;entryDx=0;entryDy=0;entryPerimeter=0;" edge="1" parent="1" source="2zz1_mVkn2yC-SG665zC-51" target="2zz1_mVkn2yC-SG665zC-33">
          <mxGeometry relative="1" as="geometry">
            <mxPoint x="239" y="430" as="targetPoint" />
            <Array as="points">
              <mxPoint x="239" y="390" />
              <mxPoint x="305" y="390" />
              <mxPoint x="305" y="76" />
            </Array>
          </mxGeometry>
        </mxCell>
        <mxCell id="2zz1_mVkn2yC-SG665zC-57" value="/5" style="edgeLabel;html=1;align=center;verticalAlign=middle;resizable=0;points=[];" vertex="1" connectable="0" parent="2zz1_mVkn2yC-SG665zC-56">
          <mxGeometry x="-0.0639" y="1" relative="1" as="geometry">
            <mxPoint as="offset" />
          </mxGeometry>
        </mxCell>
        <mxCell id="2zz1_mVkn2yC-SG665zC-51" value="Add" style="rounded=0;whiteSpace=wrap;html=1;" vertex="1" parent="1">
          <mxGeometry x="209" y="300" width="60" height="60" as="geometry" />
        </mxCell>
        <mxCell id="2zz1_mVkn2yC-SG665zC-60" style="edgeStyle=orthogonalEdgeStyle;rounded=0;orthogonalLoop=1;jettySize=auto;html=1;entryX=-0.017;entryY=0.5;entryDx=0;entryDy=0;entryPerimeter=0;" edge="1" parent="1" source="2zz1_mVkn2yC-SG665zC-37" target="2zz1_mVkn2yC-SG665zC-42">
          <mxGeometry relative="1" as="geometry" />
        </mxCell>
        <mxCell id="2zz1_mVkn2yC-SG665zC-61" value="/4" style="edgeLabel;html=1;align=center;verticalAlign=middle;resizable=0;points=[];" vertex="1" connectable="0" parent="2zz1_mVkn2yC-SG665zC-60">
          <mxGeometry x="-0.02" y="-1" relative="1" as="geometry">
            <mxPoint as="offset" />
          </mxGeometry>
        </mxCell>
        <mxCell id="2zz1_mVkn2yC-SG665zC-64" value="" style="shape=image;verticalLabelPosition=bottom;labelBackgroundColor=default;verticalAlign=top;aspect=fixed;imageAspect=0;image=data:image/png,iVBORw0KGgoAAAANSUhEUgAAAgUAAAKwCAYAAAAImwzLAAAgAElEQVR4nOzd0WsbWbrv/Z8P+SdU0HsQiQdBQmiaOrwQ9ex5EZ6Z9IXcFz1X7WLePrDtTYaDk4axbma/FMWZvrGbM0kYErB2YN6h3FfdFxNduGcTijNnWt43omlCDOJ1TDE7UPortnwuVLIlR5Ktbltl1fP9gKCtUjvrWetZ1uNaS14LSZIcSdJf/vIX/eIXv5BVxE/8xE/8VhE/8ffj/y/9J//zP/8zswZdBcRP/JYRP/FbRvwn8S88e/bsqNvtqtvtZtgkAACQtYX+8kGj0dD/9V//a9btQUbefe89HR0dZd2MzCwsLOi7b7/NuhnICPlP/ls2mP//5YzXAgAAIygKAACAJIoCAACQoigAAACSKAoAAEDqihcF3+h3772ndz/5Qm+Gnn+jnU/e07vvfaZvRr3+vc/0zZsv9Kv33tO7Ix+faGf4G57z3+3/8yO+92ffjHph2s5p/m3YlFWun/53JvxbzAdciIx/rqeP351O0aHvfaoNZ+b48PfuP371xdsNevPFJ73rQ/GP+v9P98NsXPGi4Ad452P96dtv9d2336rxm9uSpNu/+bO++/ZbffftH7Xyzvf7tm+++ETvfvi5Xn70OP1e6ff/an14kL/5TO++96G2Xn6kP6Sv++7bb/Xdn3+uv3yYzWAjpy4i19/8TX95Kd2+fVvSV/pf50xQ5gNm6kJ+rt/W7dvSl/86XJS8+du/6WV6bdC5c7zXGDUGXvPy8w8Hiode0VP9/OX4pg38G999+1u9f55wLlh+i4JL8Y3+v89fSvpIf/jtyXC98/H/0MZtSS//Tf/7Te91v1v/qve60wP7zsf6U0aDDYzT+4H4kdb+x891W9KXfz3P2zTzAfNoUb/4+e2B/JSOc/mjn2v4jx2fN8ff9s7Hf9QfPpL01XrvrsSbv+kvL29r4/FvdHv0/3IlUBRM45u/6ktJ+uinp36IvaMfLUrSS/3lb28mvA64ivo/EH+q99/5iX5xW9JXfz37t3fmA+bUj37yc93u56d0nKO//OlPhl943hwf9+8Ue2////9/vEkL4D9q5UcXFcXloCi4IP3BH3S7mI7+W+tR3C7FFZL+4Ovl6zv6x5/3lhC2R6yHnhfzAVdaWvy+/Le/6Y2kb/7au5P1f09RtY7K8bf+mX9YnK5dX62fsS/n8lEUXJC/x711oh//w8mi1sv4773/OF4He6xfZtE4YILeD8Tb+sVPern7zk96Swj9H5jfB/MBV1ta/L78N/3vb77Q9lea+k7WqBw/7c1/HJzzu72vfzneS/Dn3tJEf9lhxua8KDjQ30f91Lpd1KXcoflRsbcW9Nat1Tf6+4Ek3VbxR5Le/2nvh915bsEC53JZuf6N/tdXkvRSWx+mv6F8+LleShPXSyUxH3BJZvNz/Z10CWFr/XO91G1t/GpESXDeHB+jVzicFNznbFm6NJEuO8zYnBYF/VucL7X1p5OhevPFv/Zug/78J/qeHy4445/9WGsfSadvrb754v/V1ktJH/1Tuvv1ff3L448kfaX/Pu5jXMC5XHKu95cOjndwD+7snrxeynzAxZrxz/X+/hlJuv1z/eOob37uHH/bmy8+0X//avJrjn3z2cDHF/uF+rTFxMW4NvN/8ft4+bmq732efnFbG3/+o1Y+/qO++4fP9O76ut796uSlv3z8rf7lonYzjfp3f/utGsVPVP38Q737+clL3/p33/+tvvv2p/rde+sD3yPFhiuMM9Ncf6Odfx1eOuh75yc/1+3PX+rl53/SNx//dHzbmA/4vrL6uX6sV4RsvXw5seB4/7w5Lp2KqVds/+nj9Du/+UK/6t+FG3ztR4/13W9/q8+++ETvvte/mvbH7GsCjk5GD0fHcnSsZeQ/+W8ZRycDAIC3zMfywYX7Rr97b733+dMRhm75AHONXIcV5PpFMFoU9D7+8S9ZNwO4dOQ6rCDXL8K13d1ddbtdSb11Bdi1v7+fdRMyRf7bRv6T/5b185+Nhql333vP9EYbNlrZ3mhF/pP/1sffevxsNAQAAEMoCgAAgCSKAgAAkKIoAAAAkigKAABAamxR8M1nsz3P+c0Xn2R2fvRYb537/t7AoRXn/RYXH9eV7KucIf9F/htG/sts/nOnYJxvPtO7H36uHz8+OTnuuz//Rvr8w6kTA5g75D8sM5z/5ywK3mjnk/f0u2++0e+Oq6ZPtPNm8Pon2nkz6fp7+t1gcfPNZ3r3ky/0Jr1W/fyl9NX696rGLl7v9Ljbv/nz8ClY73ysPz3+qHdyXP91U8eVt76ygPyXRP6bRf5LMpP/U90p+HL9X1X8c69q+sNHw2deSy+19eHJ9cZvpK0PP9PZNzne0cof0/PbP3qs7779Nvu/T/3mb/rLyzFnWb//U/1SB/r7mWMxKa4c9ZUh5L/If8PIf5nI/6mKgl8+Pjnf+f2ffiQd/IfejLn+zsf/dM7Ou6oW9aOx/f1S8d9/2HfPV1/ZQP73kf8Wkf99+c7/S95T8MM7LzuTBum2ij+66H9vnvsKo83zmJL/+KHmeUzt5v8lFwWX0Xkz8M4/6MfjBumbv+rLiVXk9zWnfYUJ5nRMyX9ciDkdU+P5f6FFwZfrJxsm3nzxr/ry9s/1j+9I0jv60aL05V+/6V/Ur9a/evsbnLodlZ339f/85vZQPJKO2337N79Sb//J948rP32FvvyMKfmP6eVnTG3n/4UWBb98/E+KP+ztqKx+vqg//PFj9Quq93/7WL9Md0y++2GstccfDf2/7/zk57r98nNVr8TuU+mdj/+o7x4vauvDgc+pfvhv+sWfhzd3fN+48tRX6MnTmJL/mFaextRy/l/Q0clvtPPJh4r/6dvhj3DMkdkdnXk1+4qjY3/I0bFXc0ynQf6T/+Q/+S/xx4sAAECKogAAAEiSrl3Mt+n9UQWcB32VP4zp+dFX+cOYnt/V76uFZ8+eHXW7XXW7Xf3zP/9z1u1Bhl69epV1EzJz69atrJuAjJH/sKyf/0MbDZer1UwblaWC46iTJFk3IzMFxzG/0cr6+FuPn/y3Pf7W42ejIQAAGEJRAAAAJFEUAACAFEUBAACQRFEAAABS2RcFcV1Vx1EhfWxEWTcop+hn2xh/xfVlFRxH1XqcdVMwa9bzf4r4My4KIm2UfSloqpMk6oSeQm9Z28zZC0Y/22Z9/CNtOI7W9UCBm3VbMHvk/zTxZ1sURF8rlKdPV4u9ryv3FLgtHZgZrBmhn20zP/4VbSWJGv34YYv1/J8y/kyLgviwLbmLOj1V24dWRms26GfbGH9YZj3/p40/+z0FQ4q6Ucq6DRbQz7Yx/rDMev5Pjv+KFQWxXrezboMF9LNtjD8ss57/k+PPtCgoXi9JrQOdvolRus7a30Win21j/GGZ9fyfNv5s7xRU7spTqN3+xyOip/Jbnj6oZNqq/KGfbWP8YZn1/J8y/msza9hIFW01A1XLjgqSJFdB87msjNXs0M+2WR//SBuOp7D/Zausgi+5QZNPJJhgPf+ni5+jk1McncnRsdbH33r85L/t8bceP0cnAwCAIRQFAABAEkUBAABIXdvd3VW325XUW1ewzHr8+/v7WTchU9bH33r85L/t8bcefz//2WiYYqMJG62sj7/1+Ml/2+NvPX42GgIAgCEUBQAAQBJFAQAASFEUAAAASRQFAAAgdSWKgri+rILjqFo/fY4TLkxcV9VxVEgfG9HZ/wvyxfI868dO/ttlOf+l88efcVEQacNxtK4HCtxsW5JvkTbKvhQ01UkSdUJPobesbZtzwyDj8yyua71R1V6SqJMk2gtchV5N1AVWGM//KePPuCioaCtJOKnsskVfK5SnT/v9XLmnwG3pgKLACOPzrLiqxvNV9aMvLlXlqq3X5L8RxvN/yvivxPIBLld82JbcRZ1OifYhPxVhUHyglkq6YfU9ApjgWtYNQBaKulHKug1AFmJtPwzlBs2x58kDllEUmBTrdVvSYtbtAGYrqpXlK9Ce2VvJwGQsHxhQvF6SWgc6vVhQus4PRtgR1RyttAPtDewvADCMosCCyl15CrXb324dPZXf8vQB909hQqztZQoC4DyuxEcSC05Zfktq+WXTnyO9PBVtNQO1vfRz2l5bQXOTNVUzjM+z6Kn8lqSWrzsDf6ugUONDiTYYz/8p4+fo5BRHZ3J0rPXxtx4/+W97/K3Hz9HJAABgCEUBAACQRFEAAABS13Z3d9XtdiX11hUssx7//v5+1k3IlPXxtx4/+W97/K3H389/Nhqm2GjCRivr4289fvLf9vhbj5+NhgAAYAhFAQAAkERRAAAAUhQFAABAEkUBAABIZV4UxPXlk79F7jja4M+RX5p+X9v5m9/oY571RDWHOWCQ9fyfJv5si4K4rvVGVXtJok6SaC9wFXo1GRuvGegdiLGuBwrcrNuCmWOe9UQ1rbQ9ecwBW6zn/5TxZ1sUFFfVGDjKtLhUlau2XlPEX7CKtpJEjVUOjTWJeSYp1vbDUN6De1rMuimYLev5P2X8mS8fDIkP1FJJN3jvAi6PwXkW1+/LL4Xa4rxwGMz/IWfEf222rZmkV8m7QVPMW+CyGJxncV3rfkk7SUWSlV8PMZrB/B9ydvxXpiiIamX5CrTHLW7g0tibZ7G27/sqhYnRNwEMspf/w84T/5UoCqKao5V2oL2BdQ8AF8vmPIt10JJCz1E4+HSrrELDWl/YZjP/T5w3/oz3FMTaXrY9UMDlszzPeptsO8ePpgJXcoOmOub6wirL+S9NG3+2RUH0VH5LUsvXnYHPUBZqZj4sMiO9jyQWnLL8ltTyy3xW2xLmGSyznv9Txs/RySmOzuToWOvjbz1+8t/2+FuPn6OTAQDAEIoCAAAgiaIAAACkru3u7qrb7UrqrStYZj3+/f39rJuQKevjbz1+8t/2+FuPv5//bDRMsdGEjVbWx996/OS/7fG3Hj8bDQEAwBCKAgAAIImiAAAApCgKAACAJIoCAACQyrwoiOvLJ3+L2anJyF+jzkxUczj3wCDz8yyqDcRP/ltjPf+niT/joiDSk0ZVe+kJZjteqBUrh1RkIapppe3Jc7NuCGbL+jyLtOG1FTTTkxKbgeTf1zZ1gRHk/zTxZ1wUVLQ1cJRjcdGV2odirl6GWNsPQ3kP7mkx66ZgxozPs/hQbZV047gDrquUaYMwW8bzf8r4M18+OBHpid+SW10yeN715Yvr9+WXQm1Vsm4JsmVwnhVX9akXasWpKVKs7WVP7eCR1sx0AE4YzP8hZ8d/babtGSWqqeCFvf/2QnVWbQ7VpYrrWvdL2kkqkqH6GAOMz7PKZqIdOVpxQskNtGcsfvOM5/808Wd/p6Cy2VvnSxLtLT40uQnkcsXavu+rFG6KmwSGmZ5nkTYcR7t30/irDd1xltlTYInp/NdU8WdfFAwoLlXlqq3XTNYLFOugJYVef+dpWX5LavllFZbr3DcwyNo8i+sPFbqBfp1WxcXVRwrclhovjHQAhljL/9POij/boiCuqzqwCzJ+0VBrcEMQLkBFW2mF2Hs0FbiSGzTVGdh8ghwzPs+K10tS6+CkAI5fqNGSSteNdIB1xvN/2viz3VNQXFK1XVbh+MRKV0GT29zAhbI+zyqb2vHS/QQpN2iy6dYK6/k/ZfwcnZzi6EyOjrU+/tbjJ/9tj7/1+Dk6GQAADKEoAAAAkigKAABA6tru7q663a6k3rqCZdbj39/fz7oJmbI+/tbjJ/9tj7/1+Pv5z0bDFBtN2Ghlffytx0/+2x5/6/Gz0RAAAAyhKAAAAJIoCgAAQIqiAAAASKIoAAAAqStTFES13il+1brRo6suWVxfTk9J7D02TJ0bij6r82w4/40dm4tjVvO/7zzxX42iIKpppe3Jc7NuSE7Fda03qtrrn6cduAo9fjCaY3aeRXoykP87XqiVGtlvjtn8T50z/itQFMTafhjKe3BPi1k3Ja+Kq2oMHJNs/TxxmyzPs4q2BvN/0ZXahyL9LbGc/9I08WdeFMT1+/JLIceYzlJ8YOs8cTDPjkV64rfkVpdE+tthPf+nif/a5Tdngriudb+knaQiUbfPSK9idIOmnfPErWOeSVFNBS/s/bcXqrNKSWCG9fyfMv4Mi4JY2/d9lcKEN6cZimpl+Qq0xw9FI5hnkqTKpjrJpqT+psOvtZNs2u4TE6zn//TxZ1oUHLSk0HMUDj7dKqvQCLQ3sAaIixHVHK206VtbmGenFZeqcv2GXsdSxVrw5ljP/+njz7AoqGgrSbR1/HWs7eWyGtWmGvwWe8F6fevLwiTAMOaZ4rqqT6+rsdn7XSl+0VBLJX1qJHzbrOf/9PFnu6cAsxE9ld+SJF93HP/keS9UZ9PmTTUYUlxStV1W4fhkXFdBk6UDYBSOTk5xdCZHx1off+vxk/+2x996/BydDAAAhlAUAAAASRQFAAAgdW13d1fdbldSb13BMuvx7+/vZ92ETFkff+vxk/+2x996/P38Z6Nhio0mbLSyPv7W4yf/bY+/9fjZaAgAAIZQFAAAAEkUBQAAIEVRAAAAJFEUAACAVMZFQaztZUcFZ+BRi7JtUl5FtaF+rtYNnituFvNM6h+Z3O+DZW0zBYywnv/TxX8lDkTywkRbnE5yiSJteG0FzURrRfVOjSvf1/bS897XMMHyPIvry7rTqGovec4poUZZzn/p/PFfiaIAlyw+VFslfdD/aVi8rlKmDQJmKdITXwqaHBsOnOVK7CkIPW7pXariqj71Qq04NUWKtb3sqR084i6BMWbnWXyotqTGfau3jyEZzv/UeePPuCgoau15ok7Se+wFkl+uiel68SqbiXa8UCtOWb4CPV6lIrDD+DyLD9SSVH2U9kEzkBt62jDTAdYZz/8p478Sdwr6iqsP5CnUrp3RmpFIG46j3btpUlQbumO0WobVeVbSjePlsyVVXal9yASwyGb+nzgr/itVFPRu87la5JfYCxXXHyp0A/063WRSXH2kwG2p8YIfiiZZm2fFRblq6zXpDsle/p92RvyZFgVRbfi31eipr5Zb1c+sDtYlKV4vSa0DHXd1/EKNllS6TkdbYH6eFZdUHSyCo6fyW66qS1Y6wDbr+T9t/Jl++qByt6SVsiO//4QbaO85O4QvXGVTO56jFSc8fsoNmqY/nmMJ86yotUeBGuWyCmkneGHCRlsjrOf/tPFzdHKKozM5Otb6+FuPn/y3Pf7W4+foZAAAMISiAAAASKIoAAAAqWu7u7vqdruSeusKllmPf39/P+smZMr6+FuPn/y3Pf7W4+/nPxsNU2w0YaOV9fG3Hj/5b3v8rcfPRkMAADCEogAAAEiiKAAAACmKAgAAIImiAAAApK5EURDXl1VwnPTBkb4XL9b2sjPQx44KNaPnhhpmYZ71Y6zW45HP9x8bpL85FvJ/kvPGn+mBSFKvoXcaVe0lz80cUJEVL0w4BMmo/M+zSBuOp3YQKnA9NQYvxXWtD8Qe15d1x6vpg2RTTAcb8p//k00Tf8ZFQaQnvhQ07ZxYBcyehXlW0VaSSIq13Th1qbiqxvOBL5eqcv2GXsdSJb8dgmMW8n+S6eLPdvkgPlRbUuM+t7VnIfTs3jozjXk2LD5QSyXdsPkOYY/1/J8y/oyLggO1JFUfJeokiTrNQG7osd534Ypae572cZJoL5D8ck10sxHMswGxth+GcoN7LB1YYT3/p4z/Cmw0HKjYi0uqulL7kF9jL1Nx9YE8hdq1Mikg5llPVCvLV6DHq9wmsMV6/p8//myLguKiXLX12tLYXAXxodpytcjPRRuYZ5KkqOZopR1o77nVtWWjrOf/lPFnXBQsqeq21HiRtjZ6Kr/lqrrElL1IUW14D0H01FfLrepndLMN5udZ7yO5FARGWc//KePP/pTEuK5q2Vcr/TKrj83l+pSsqKaCF5587b79w5FT4nJ+StwZ82z+87/3kcTw1LNu0FTj+tPh/O/zQnU2e51A/pP/1uPv53/2RcEVkfukOAM/FHP+Q/EM5D/5b338rcfP0ckAAGAIRQEAAJBEUQAAAFLXdnd31e12JfXWFSyzHv/+/n7WTciU9fG3Hj/5b3v8rcffz382GqbYaMJGK+vjbz1+8t/2+FuPn42GAABgCEUBAACQRFEAAABSFAUAAEASRQEAAEhlWxRENRUcZ8SjJk71/X7i+rIKjqNqPT59QdWBPjZzljhMzbOx+X/GNeSYofwfacr4sy0KKpvqJMnQY8eT5N1VBmcizblIG46jdT1Q4I64VvaloNnr59BT6A2fnIgcMzHPzsj/sdeQeybyf4Ip47826/ZNFNf1+9BV0DQxVBesoq0kkRRru3HqUvS1QnnaWU3PRazcU+CWdRBLnCNrUC7n2YT8n3gN5uQy/6dwRvxXqiiInvpqeaEavFFdqPiwLbnVt97/24exVKGzrWGewTLr+X9W/Fdoo2Gk3VDy7hqt3maqqBulrNuAbDDPYJn1/D87/itzpyCuP1ToBtqzOlYzFet1W9Ji1u3ArDHPYJn1/D9P/FekKIj0xG/JC5+zxH0JitdLUutAp7cQlK7T27Ywz2CZ9fw/X/xXYvkgrj9UKE8fGK3eLl3lrjyF2u1//iR6Kr9Ff1vDPINl1vP/vPFfgTsFverFDR7Z+HjIpYm04XgK+1+2yir4khs01VitaKsZqFp2VJAkuQqaz+lvU/I+zyblfzzhms3fGe3Je/6f5fzxc3RyiqMzOTrW+vhbj5/8tz3+1uPn6GQAADCEogAAAEiiKAAAAKlru7u76na7knrrCpZZj39/fz/rJmTK+vhbj5/8tz3+1uPv5z8bDVNsNGGjlfXxtx4/+W97/K3Hz0ZDAAAwhKIAAABIoigAAAApigIAACCJogAAAKSyLwqimgqOc/yo1uOsW5RLcX15oJ9ris7+X5AnpudZrO1lZyj+Qo0ZYIrp/NdU8WdcFETa8NoKmok6SaJOM5D8+9o2Nl6XL9KTRlV7Sa+fd7xQK/xQNIR5JklemMafJOps2jwWxybr+T9d/NkWBfGh2irpRv+gsuJ1lTJtUF5VtPV89fgM7eKiK7UPZWZOWMc8g2XW83/K+LM9Orm4qk89RyuOtJPc0+tlT+2gqS1OM71EJ0do0s1GMM8kSaHnpMcn944OXzMWv1nW83/K+LMtCiRVNhPtyNGKE0puoD3ON78cUU0FLz1R3gvVoZ9NsT3Pilp7nmgt/SquL+tOuaYbyeaZZ8sjH2zn/3TxZ7+nwHG0e7e31rFXbeiOs2xorWeGKpvH66l7iw/ZbGgK82xQcfWBPIXaZQIYYT3/p4s/06Igrj9U6Ab6dVquF1cfKXBbarwwM1qZKC5V5aqt13SzCcyzU+JDteVq0dYvi2ZZz/9p48+0KCheL0mtg5MNb/ELNVpS6Tqz9ULFdVUHPm0Qv2ioNbjxBLlmfZ5FteHfiqKnvlpuVT+zEb551vN/2viz3VNQ2dSOl65zpNygqS0W+i5WcUnVdlmF45NBXQVN1lPNMD7PKndLWik78vtPuIH2Bj6Ng5wznv/Txs/RySmOzuToWOvjbz1+8t/2+FuPn6OTAQDAEIoCAAAgiaIAAACkru3u7qrb7UrqrStYZj3+/f39rJuQKevjbz1+8t/2+FuPv5//bDRMsdGEjVbWx996/OS/7fG3Hj8bDQEAwBCKAgAAIImiAAAApCgKAACAJIoCAACQyr4oiGoqOE76sHSc5eWI68sqOI6q9dEdGdWcideRU0bm2dj8j+uqHsfvaINjk20xkv9jTRF/tkVBVFPBayto9s557oQl+eWamK/fR+/M7HU9UOCOe0lNK21P3rjryCcT82xS/kfaKPtS0Ezj9xR6Bt8YrDKR/xNMGX+mRUF82JYGjzCt3JWntl4zWb+HiraSRI3VcWe/xdp+GMp7cE+LM20XsmZjnk3I/+hrhfL0af9a5Z4Ct6WDXMWPcWzk/3jTxp9pUfDWOc+SJCbrZYjr9+WXQjvHheKY9XnW+6G4+NZRye1DIx1gnPX8nzb+azNo03hvnfPsynWlUqaNyqG4rnW/pJ2kIsnITMAJ5tkpRd2wG7w91vN/yvgz32hY2UzXOZJEneSBSq2sW5Q3sbbv+yqFm+ImgV3Ms0GxXrezbgNmyXr+TxN/tncKTkvX/nZ497pAsQ5aUug5CgefbpVVaATae7761m1V5JyxeTZ4+3Qw10vXyXyTjOX/W86I/woVBZE2vFBu0OQ32gvV24C1dfx1rO3lshrV5oRNicgvg/OscleePO1Gm6pUJEVP5bcMvymYZjD/h5wdf7ZFQVxXteyrfyfDDXij+v4ibTjeyd2AVlkFnz6FjMyzSflf0VYzULXsqCBJchU0nxt9UzDIRP5PMGX8HJ2c4uhMjo61Pv7W4yf/bY+/9fg5OhkAAAyhKAAAAJIoCgAAQOra7u6uut2upN66gmXW49/f38+6CZmyPv7W4yf/bY+/9fj7+c9GwxQbTdhoZX38rcdP/tsef+vxs9EQAAAMoSgAAACSKAoAAECKogAAAEiiKAAAAKnMioK4vqyC46haj09fUNVxVEgfG1E27cudqHbcpwVnWdvx2f8L5g/zaoSh3B981GSpGyywnv8XEX8GRUGkDcfRuh4ocEdcK/tS0Oyd+xx6Cj3ewH6wqKaC11bQTM/TDkvyy/xAzBfm1ViVzYGz5HuPHU+Sd5dDkXLDev5fXPwZFAW9o3xHntKUnvP8af9a5Z4Ct6WDXA3e7MWHbcmt6mf9Lq/clae2XtOvOcK8Ore4rt+HroJ7lAT5YT3/Ly7+K7WnoPfmtajTYbUPczV6M1e8XpJaBxruxbxNCozDvBoWPfXV8h5ozdDpuZZZz/9p4792+U36IYq6Ucq6DTlQ2dSO52jF6Z8278p1JbrWKsvzKtJuKHkhdwnsspz/0lnxX6k7BW+L9bqddRvyobI5uKb6QKVW1i1CduzOq7j+UKEb6NfUBIbZzf+eyfFfqaJg9G1uqXSd+3wXKl1j+oAfjCYwr6te2ugAACAASURBVPoiPfFb8h6svnUrFfllPf+njf9KFQW9DXChdvvb4qOn8lu8eV2sSBteKDe4x85rK5hXktK7BBTD9ljP/ynjz2BPQaQNx1N/dVutsgq+5AZNNVYr2moGqpYdFSRJroLmc968fqi4rmrZV3/FoNfXNqpkO5hXk/XuErjBI2NxW2E9/y8ufo5OTnF0JkfHWh9/6/GT/7bH33r8HJ0MAACGUBQAAABJFAUAACB1bXd3V91uV1JvXcEy6/Hv7+9n3YRMWR9/6/GT/7bH33r8/fxno2GKjSZstLI+/tbjJ/9tj7/1+NloCAAAhlAUAAAASRQFAAAgRVEAAAAkURQAAIBUZkVBXF9WwXFUrZ8+u2nyNXwPUU0FxxnxqCk6+//GHLE+r86KMao5ue8Dy8j/Hx5/BkVBpA3H0boeKHCnuYbvrbKpTpIMPXY8Sd7dnB0KYpn1eXWOGKOaVtqevNz2gWXk/0XFn0FRUNFWkow5pW/SNVyYuK7fh66Ce5QE+WF9Xp0VY6zth6G8B/e0ONN2YTbI/4uKnz0FBkVPfbW8B1rL8xwBBsT1+/JLobaog4GJrmXdAMxapN1Q8kJ+OsKIuK51v6SdpCIpv+vJwEWgKDAmrj9U6AbaoyaACbG27/sqhQn7Z4BzoCgwJdITvyUvfC5WDmBDrIOWFHqOwsGnW2UVGoH2nq8yF4ABFAWGxPWHCuVph1+ZYEZvk9XW8dextpfLalSbOd94Bnw/mX0kseCU5bekll8e+OzkpGv4YXp3CdzgHrdRc8n6vLIQI8Yj/y8qfo5OTnF0JkfHWh9/6/GT/7bH33r8HJ0MAACGUBQAAABJFAUAACB1bXd3V91uV1JvXcEy6/Hv7+9n3YRMWR9/6/GT/7bH33r8/fxno2GKjSZstLI+/tbjJ/9tj7/1+NloCAAAhlAUAAAASRQFAAAgRVEAAAAkURQAAIBUZkVBXF8e+feX+8/3HxtRRg3MoeG+XdZ2nv70NyQxr0bHH2t72RmKv1DLaQcYR/7/8PgzOxBpXQ8UuKcuxXWtN6raSxJ1kkR7gavQqymn4zdTcX1Zdwb6tpM81xqHxOWI9Xk1If6UF/ZzP1Fnk2PB8oX8v6j4MygKekeZjjy2tLiqxsD55sWlqly19ZrfaH+gSE98KXjE2fH5ZX1eTYgfBpD/FxX/1d5TEB+opZJuMM9/mPhQbUmN+9w+hczOq9Bj6Qwym//Hzoj/ChcFsbYfhnKDe+JG3w8UH6glqfoovXXaDOSGXm7X1TCJxXlV1Nrzk6WDvUDyy3m7fYzzsZj/g86O/8oWBVGtLF+BHnM78IIMVIbFJVVdqX3Ir0vWMK+k4uoDeQq1S1VgjvX8P0/8V7IoiGqOVtqB9p6zBn4hios5XEPDtJhXqfhQbblaNN0J9ljP//PGf8WKgt5HhywP3KUoLqnqttR4kVYF0VP5LVfVJXrYBtvzKqoN7yGInvpquVX9zFpHmGU7/6eNP4NTEiNtOJ7CU8+6QVON609V8E5fkeSFl/4RotyfkhXXVS37aqVfemGirYEu5ZS4eT8l7ofNq/nP/ynid9/+4Uj+k//W4+/nP0cnp+Y/KX4YfijO+w/FH4b8J/+tj7/1+Dk6GQAADKEoAAAAkigKAABA6tru7q663a6k3rqCZdbj39/fz7oJmbI+/tbjJ/9tj7/1+Pv5z0bDFBtN2Ghlffytx0/+2x5/6/Gz0RAAAAyhKAAAAJIoCgAAQIqiAAAASKIoAAAAqcyKgri+rILjqFqPRz7fe3Dm+bToV9usj7/1+K2zPv4XEX8GRUGkDcfRuh4ocN++9qRR1V6SqJMk2vFCrdTyOnwXjX61zfr4W4/fOuvjf3HxZ1AUVLSVJGqsjjrAsaKtgdPLiouu1D5UPOKVOI1+tc36+FuP3zrr439x8V/hPQWRnvgtudUlg+dfXyb61Tbr4289fuusj//Z8V+baXvOI6qdnP3sheqMrHwwNfrVNuvjbz1+66yP/xTxX707BZVNddK1j73Fh7neFDJT9Ktt1sffevzWWR//KeK/ekXBgOJSVa7aep2vxZ/M0a+2WR9/6/FbZ338z4r/ahUFcV3VgV2R8YuGWirphrE7PReOfrXN+vhbj9866+M/ZfwZ7CmItOF4Cvtftsoq+JIbNNVYXVK1XVbh+ARLV0FzU5XZN3IO0a+2WR9/6/FbZ338Ly5+jk5OcXQmR8daH3/r8ZP/tsffevwcnQwAAIZQFAAAAEkUBQAAIHVtd3dX3W5XUm9dwTLr8e/v72fdhExZH3/r8ZP/tsffevz9/GejYYqNJmy0sj7+1uMn/22Pv/X42WgIAACGUBQAAABJFAUAACBFUQAAACRRFAAAgFRmRUFcX1bBcVStjz6qKao5E69jtEn9elafY/4xr8aIaio4TvpY1rax8K2wnv8XEX8GRUGkDcfRuh4ocMe9pKaVtidv3HWMMKlfz9HnmHPMq7GimgpeW0Gzd558JyzJL48/Tx7zyHr+X1z8GRQFFW0liRqr486tjLX9MJT34J4WZ9queTepX8/qc8w/5tU48WFbcqv6Wb9rKnflTThPHvPIev5fXPxXbk9BXL8vvxRqK1/nWgKZsjyvitdLUutAwzVASwcUBWZYzn9puvivXX5zphDXte6XtJNUJDFjgQthfV5VNrXjOVpx+qfNu3JdqZRpozAz1vN/yvivUFEQa/u+r1KYyGgxB1wC5pUkVTYTdTb7X0XacLwsm4OZsZ7/08d/pYqCg5YUeo7CwadbZRUagfaer4oVcWBazKu3RF8rlKcdm+8SxljP/+njv0JFQW+jxNbx17G2l8tqVJtskAO+N+bVsEgbXig3aBr9zdEa6/k/ffyZfSSx4JTlt6SWX87150ZnZ1K/0uf5xxiPFddVPf4bBZ7agZU3BEus5//Fxc/RySmOzuToWOvjbz1+8t/2+FuPn6OTAQDAEIoCAAAgiaIAAACkru3u7qrb7UrqrStYZj3+/f39rJuQKevjbz1+8t/2+FuPv5//bDRMsdGEjVbWx996/OS/7fG3Hj8bDQEAwBCKAgAAIImiAAAApCgKAACAJIoCAACQyqwoiOvLI/42c6zt5f7fKE8ftSirJs6l0f168nz/sUG35hLzaoyh8w/I/7wi/8eYIv8zOxBpXQ8UuKNf4YWJOkn62OQss/OZ0K9xXeuNqvbSPt0LXIVeTcamRc4xr8aLtFH2paDZiz30FHrL2rZyVo4J5P940+V/BkVB7yhHTim7aBP6tbiqxsC52cWlqly19ZofijnCvBor+lqhPH3a75vKPQVuSwfkf46Q/2NNmf9Xck9B6PVvc1DNX4r4QC2VdIP5Y4rVeRUftiV3UafTvX1oqBNA/p96flz+X7GioKi15ye3ePYCyS9zm/tixdp+GMoN7snSDTTbmFfDirpRyroNmB3yf9jk/L9iRcGw4uoDeQq1a3f0LlxUK8tXoMfcZjOLeRXrdTvrNiAr5P/k/L/SRYHiQ7XlapH3rwsR1RyttAPtDewvgEHG5lXxeklqHej0zdLSdSMdgGHkv6Tx+X+lioKoNrzWEz311XKr+pmRwbs8vY/kUBDYZH5eVe4O/2YYPZXf8vQB62cmkP/T5X8GpyRG2nA8haeedYOmGtefquCFg0/O7E1s/k/JmqJf+7zw+KM5nBI376fE/bB5Nf/5f4a4rmrZV0uS5CpoPtfaQAeQ/+T/fMd/hinyn6OTU7lPijPwQ3Hefyj+MOQ/+W99/K3Hz9HJAABgCEUBAACQRFEAAABS13Z3d9XtdiX11hUssx7//v5+1k3IlPXxtx4/+W97/K3H38//ax988IGk3kZDyxtt9vf3dfPmzaybkRnr8b969cp0/NbH33r8ksxvtLMefz//WT4AAACSKAoAAECKogAAAEiiKAAAACmKAgAAIImiAACQE3F9WQXHUbV++kzAk2u9x/AhSRZM6ptBFAUAgDkXacNxtK4HCty3r8b1Zd1pVLWXJOokiTrJ8IFA+Ta5b067dvkNAgDgMlW0lSSSYm03Tl+L9MSXgqbVY+Mn9c3buFMAAMiv+FBtSY37zsnyQS3KulVXFkUBACC/4gO1JFUfpUsHzUBu6GmDumAkigIAQM6VdKO/dlBcUtWV2ofGdhqeE0UBACC/ioty1dZraoBzoSgAAORXcUlVt6XGi7QqiJ7Kb7mqLtncdngWPn0AAJhzkTYcT2H/y1ZZBV9yg6Yaq0WtPQrUKPeekyQvTIx9JHF835xGUQAAmHO9j91tjbtcXFUjWZ1lg66QM/rmFJYPAACAJIoCAACQoigAAACSpIVnz54ddbtddbtdlcvlrNsDAJixW7duZd0EZOzVq1eSpIUkSY4kqdFoaG1tLdNGZWl/f183b97MuhmZIX7iJ3678S8sLKiTJFk3IzMFxzEf/9HRkSSWDwAAQIqiAAAASKIoAAAAKYoCAAAgiaIAAACkKAoAALkQ15dVcBxV6wNHIkY1FRxnxKOmKLumzlS/X/qPjQmBUxQAAOZcpA3H0boeKHBPXapsqpMkQ48dT5J3V5UsmjprcV3rjar20tj3AlehN74goigAAMy53qE/o079e0tc1+9DV8E9EyVB7zCo56vq90xxqSpXbb2OR7+cogAAYEb01FfLe2Do6ORT4gO1VNKNMfFzdDIAwIhIu6HkhUbuErwl1vbDUG7QHLt0QlEAADAhrj9U6AbaM1oTRLWyfAXam7DMQlEAADAg0hO/JS98LosrB1HN0Uo70N7A/oJR2FMAAMi9uP5QoTx9YO4uQazt5fMVBBJFAQBg7vU+klhwyvJbUssvn/p7Bb27BG5wz8bHEAdFT+W3JLV83Rn8Ow210R9KZPkAADDneh9J3DrjukmVTXWSzXO/nDsFAABAEkUBAABIURQAAABJ0sKzZ8+Out2uut2uyuVy1u0BAMzYrVu3sm4CMvbq1StJ0kKSJEeS1Gg0tLa2lmmjsrS/v6+bN29m3YzMED/xE7/d+BcWFtSxuhFPUsFxzMd/dHQkieUDAACQoigAAACSKAoAAECKogAAAEiiKAAAACmKAgBALsT15VNnHqSi2snf/B91Pef6/dJ71DT61IMeigIAwJzrHYi0rgcK3BHXvLaCZqJOkqjTDCT/vrbN1AWRnjSq2kt68e94oVbGHIYkURQAAOZe78CjxuqIg4HjQ7VV0o3+peJ1lWbatqxVtDVwZHJx0ZXahxpXE3FKIgAgv4qr+tRztOJIO8k9vV721A6a2hpRP+Rf/wjpRxoXPkUBACDXKpuJduRoxQklN9DeqDsKeRbVVPDC3n97oToT4mf5AACQY739Brt3e2vqe9WG7jjLhvYUSKps9vZTJIn2Fh9O3GxIUQAAyK24/lChG+jXld7XxdVHCtyWGi8sVQUniktVuWrr9ZjwKQoAALlVvF6SWgcnG+viF2q0pNJ1I0sIcV3VgU8bxC8aag1uvDyFPQUAgDkXacPxFPa/bJVV8CU3aKqxuqkdL91PkHKDprYqmTR09opLqrbLKjj9J1wFzU2NC5+iAAAw53ofSdwad3UzUWdzpg26Qopae55o7ZyvZvkAAABIoigAAAApigIAACBJWnj27NlRt9tVt9tVuVzOuj0AgBm7detW1k1Axl69eiVJWkiS5EiSGo2G1tbOuxUhf/b393Xz5s2sm5EZ4id+4rcb/8LCgjpJknUzMlNwHPPxHx0dSWL5AAAApCgKAACAJIoCAACQoigAAACSKAoAAECKogAAkAtxfVkFx1G1fuoIwKimguOkD2PHJg+Ias7o/hlAUQAAmHORNhxH63qgwD19qaaC11bQTNRJEnXCkvxyTdHI75NjUU0rbU/e6f45haIAADDnegciNVbfPg84PmxLblU/61+q3JWntl6bulsQa/thKO/BPS2e8UqKAgBAbhWvl6TWgYZrgJYODBUFcf2+/FJ4ruOiOToZAJBflU3teI5WnDB9wpXrSqVMGzVDcV3rfkk7SUXS2ZUQRQEAINcqm4k6m/2vIm04XpbNmaFY2/d9lcJE57hJIImiAABgSfS1QnnaOe+75FyLddCSQs9ROPh0q6xCI9De81Wd3oVBUQAAMCLShhfKDZrn/s15vvU2YG4dfx1re7msRrU5clOmRFEAAJh7vSWB49+GW2UVfMkNmmosvVC17KuVXnKD8W+IoCgAAMy9078RD1pVI1mdcXuuqqLWnidam/AKPpIIAAAkURQAAIAURQEAAJAkLXz55ZdHG/++LUlq/Lf/mXFzAACzduvWraybgIy9evVKknTtxz/+sfTvvSdv3ryZYZOytb+/T/zEn3UzMkP8tuOXpE6SZN2EzBQcx3z8/fxn+QAAAEiiKAAAACmKAgAAIImiAAAApCgKAACAJIoCAEAOxPVlFRzn+LERDV1Uddy13Iu1vewM9U2hNr4DKAoAAPMtrmu9UdVekqiTJNoLXIVeTb23vkgbZV8KmuokiTqhp9Bb1naccZtnzAt7fdNJEnU2x58RSVEAAJhvxVU1nq+qf/ZhcakqV229jiVFXyuUp0/7JyNW7ilwWzowVhScF0UBACBf4gO1VNKNohQftiV3UacPS24f2qoKQq+/fDD5LglFAQAgR2JtPwzlBvc0+iZ5UTdKM25SpnrHJXeOl1Ykv9xfWnkbRQEAIDeiWlm+Aj1ePX1voC/W6/ZMm3SlFFcfyFOo3TFVAUUBACAXopqjlXagvcH9BddLUutAp++Yl66PKxpyLj5UW64Wx4RPUQAAmHO9j92dLggkSZW7w78ZR0/ltzx9MH4Dfq5EteE9BNFTXy23qp+NKQquzaZZAABckuip/JYk+brj+CfPe6E6mxVtNQNVy44KkiRXQfP5mP0G+VO5W9JK2dFxr7gjCqcBFAUAgPlW2VQn2Rx/vbiqRrI6u/ZcJWf1zSksHwAAAEkUBQAAIEVRAAAAJEkLX3755dHGv29Lkhr/7X9m3BwAwKzdunUr6yYgY69evZIkLSRJciRJjUZDa2trmTYqS/v7+7p582bWzcgM8RM/8duNf2FhQZ0kyboZmSk4jvn4j46OJLF8AAAAUhQFAABAEkUBAABIURQAAABJFAUAACBFUQAAmHtxfVkFxzl+bESjr1frp89LtGG4f4YPSRpEUQAAmG9xXeuNqvaSRJ0k0V7gKvRq6tUFkTYcR+t6oMDNuJ0ZievLujPQP53kudY4OhkAkEvFVTUGTv4rLlXlqq3XsSRVtJUkaqyOOxcw7yI98aXg0fiTEQdRFAAA8iU+UEsl3bBaBwyKD9WW1Lh/srRSqEVjX05RAADIkVjbD0O5wT1Vsm7KVRAfqCWp+ihdOmgGckPvrT0XfRQFAIDciGpl+Qr02OxywSgDd02KS6q6Uvtw9E5DigIAQC5ENUcr7UB7z8+3fm5CcXFgf8XZKAoAAHMu1vYyBcFIxSVV3ZYaL9KqIHoqv+WqujS6l67NsGkAAFy86Kn8liT5uuP4J897oTqb0objKew/1yqr4Etu0DTyiYSi1h4FapR7cUuSFyZjP5JIUQAAmG+VTXWSzbGXt5JEWzNszpVTXFUjWT3XS1k+AAAAkigKAABAiqIAAABIkhaePXt21O121e12VS6Xs24PAGDGbt26lXUTkLFXr15JkhaSJDmSpEajobW1tUwblaX9/X3dvHkz62ZkhviJn/jtxr+wsKBOkmTdjMwUHMd8/EdHR5JYPgAAACmKAgAAIImiAAAApCgKAACAJIoCAACQoigAAMy9uL6sguMcPzai813Lvag2FPvJo6ZR3UBRAACYb3Fd642q9pJEnSTRXuAq9NI3vUnXLKhsqpPG3n/seJK8u6qMeDlFAQBgvhVX1Rg4Mrm4VJWrtl7HZ1yzKK7r96Gr4N6okoCiAACQN/GBWirpxqjjgSddMyB66qvlPeDoZACABbG2H4Zyg+aI2+OTrlkQaTeUvHB89BQFAIDciGpl+Qq0t/r2r8KTrlkQ1x8qdAPtTaiIKAoAALkQ1RyttAPtDewhOM81GyI98VvywucT42dPAQBgzsXaXh73pj/pmh1x/aFCefrgjHUT7hQAAOZb9FR+S5J83XH8k+e9UJ27X4+/tmllZ0HvLoEbPDpzLwVFAQBgvlU21Uk2x12ccM2KirbOeTQ0ywcAAEASRQEAAEhRFAAAAEnSwrNnz4663a663a7K5XLW7QEAzNitW7eybgIy9urVK0nSQpIkR5LUaDS0traWaaOytL+/r5s3b2bdjMwQP/ETv934FxYW1DnnRrQ8KjiO+fiPjo4ksXwAAABSFAUAAEASRQEAAEhRFAAAAEkUBQAAIEVRAACYe3F9WQXHOX5sROOu1RSN/zb5FNWG+qZaj8e+lKIAADDf4rrWG1XtJYk6SaK9wFXo9d/8Iz0ZuLbjhVqpWSoLIm14bQXNXvydZiD597U9pi6gKAAAzLfiqhoDxyIXl6py1dbrWJIq2hq8tuhK7UON/105Z+JDtVXSjeMOuK7ShJdTFAAA8iU+UGvwjfBYeoRwdUlvXcqr4qo+9UKtODVFirW97KkdPNLamA7g6GQAQI7E2n4Yyg2aqvSfimoqeGHvv71QnVUzJYEkqbKZaEeOVpxQcgPtTYifOwUAgNyIamX5CvR48I2vstlbT08S7S0+NLbZMNKG42j3bhp/taE7zjJ7CgAA+RbVHK20A+0N7CE4bXi/Qf7F9YcK3UC/Tm+bFFcfKXBbarwY3QEUBQCAORdre3lMQRDXVR34tEH8ojFmv0E+Fa+XpNbBycbK+IUaLal0fXQHsKcAADDfoqfyW5Lk647jnzzvhepsLqnaLqvg9J90FTQ3T/Yb5F1lUzteup8g5QZNbY3pAIoCAMB8q2yqk2yOvbz2PNHaDJtz1VQ2E3XGd88Qlg8AAIAkigIAAJCiKAAAAJKkhWfPnh11u111u12Vy+Ws2wMAmLFbt25l3QRk7NWrV5KkhSRJjiSp0Whobc3uVoz9/X3dvHkz62ZkhviJn/jtxr+wsKBOkmTdjMwUHMd8/EdHR5JYPgAAACmKAgAAIImiAAAApCgKAACAJIoCAACQoigAAMy9uL6sguMcPzZGnI0c1XrXqnUjRyT2RbWBvhl/bLJEUQAAmHdxXeuNqvaSRJ0k0V7gKvRqGqoLoppW2p48N6tGZiSqqeC1FTR7fdMJS/LLp/pmAEUBAGC+FVfVGDgyubhUlau2Xp+cF6zth6G8B/e0mFETsxIftiW3qp/1O6dyV95Q3wyjKAAA5Et8oJZKupG+Ecb1+/JL4djjgvOseL0ktQ40XAO0dDCmKODoZABAjvTuCrhBUxWpt7Tgl7STVCQZ20sgSZVN7XiOVpwwfcKV60qlMS+nKAAA5EZUK8tXoL3VoqRY2/d9lcJEBm8SHKtsJups9r+KtOF4Y19LUQAAyIWo5milHWjveH9BrIOWFHqOwsEXtsoqNAZfZ0j0tUJ52hlTJVEUAADmXKzt5fQOwdAbfUVbSaKtU69rVJtqrJorByRF2vAGllZGYKMhAGC+RU/ltyS1fN0Z+FsFhdq4D94ZEtdVPe4TT+1gckHEnQIAwHyrbKqTbJ79OhW19jzR2qU36AoprqqRrJ775dwpAAAAkigKAABAiqIAAABIkhaePXt21O121e12VS6Xs24PAGDGbt26lXUTkLFXr15JkhaSJDmSpEajobU1U9svhuzv7+vmzZtZNyMzxE/8xG83/oWFBXWSJOtmZKbgOObjPzo6ksTyAQAASFEUAAAASRQFAAAgRVEAAAAkURQAAIAURQEAYO7F9eWTMw8cRxvHxx7E2l52hq7l9UyEfh9U6/HpCwPnHwz2zdsoCgAA8y2ua71R1V6SqJMk2gtchV5Ng+99Xti71kkSdTbHnRE4ryJtOI7W9UCBO+Ja2ZeCZi/20FPoLWs7HvV9KAoAAPOuuKrGwJHJxaWqXLX1eswbX/70jogeefph9LVCefq0f61yT4Hb0gFFAQDAhPhALZV0Y+A9MvT6t8/H/5acR/FhW3IXdbpcaB+O7gSKAgBAjsTafhjKDe6pt0jQOy65c7y0IPnl4aUFW4q6URp/laIAAJAbUa0sX4Eej7qVLqm4+kCeQu2arQpivW6Pv0pRAADIhajmaKUdaG9gf8Fb4kO15Wpx7AvypXi9JLUOdHqxoHR9dAdQFAAA5lzvY4ejCoKoNryHIHrqq+VW9TMjRYEqd4fvjERP5bc8fTDmAxjXZtYwAAAuQ/RUfkuSfN1x/JPnvVCduyWtlB0dP+uecSdhLkXacDyF/S9bZRV8yQ2aaqxWtNUMVC07KkiSXAXN5xr3oUyKAgDAfKtsqpNsjrs44Vpe9D6SuDXucnFVjWT1XN+J5QMAACCJogAAAKQoCgAAgCRp4dmzZ0fdblfdblflcjnr9gAAZuzWrVtZNwEZe/XqlSRpIUmSI0lqNBpaW1vLtFFZ2t/f182bN7NuRmaIn/iJ3278CwsL6iRJ1s3ITMFxzMd/dHQkieUDAACQoigAAACSKAoAAECKogAAAEiiKAAAACmKAgDA3Ivryyo4zvFjI5p0ffiQpLzox1itvx3cpGuDKAoAAPMtrmu9UdVekqiTJNoLXIVeTdHx5WXdGbjeSZ5rLVcnIkXacByt64ECd5prb6MoAADMt+KqGgMnHxaXqnLV1utYkiI98aXgUd5ORhzUOxCpsToqwknX3kZRAADIl/hALZV0oygpPlRbUuP+ydJCoRad9R3MoigAAORIrO2HodzgnipSWiBI1Ufp0kEzkBt6b+05QA9FAQAgN6JaWb4CPR66XZ7eNZCk4pKqrtQ+zOFOwwtAUQAAyIWo5milHWhvYH+BiosD+wtwFooCAMCci7W9PKIgkNI7Ay01XqRVQfRUfstVdSm/2w5/iGtZNwAAgB8keiq/JUm+7jj+yfNeqM5mRWuPAjXKZRX8/tNJDj+S6Cnsf9nqxeoGTTVW4wnX4igf8QAACpxJREFU3u4EigIAwHyrbKqTbI6/XlxVI1mdXXtmrvexw62R14oTrr2N5QMAACCJogAAAKQoCgAAgCRp4dmzZ0fdblfdblflcjnr9gAAZuzWrVtZNwEZe/XqlSRpIUmSI0lqNBpaW1vLtFFZ2t/f182bN7NuRmaIn/iJ3278CwsL6iRJ1s3ITMFxzMd/dHQkieUDAACQoigAAACSKAoAAECKogAAAEiiKAAAACmKAgDA3Ivryyo4zvFjI0ovRLWh508eNUUTv+P86fdBtR6PfP6tvhmBogAAMN/iutYbVe0liTpJor3AVeilb/qVTXXS5/uPHU+Sd1eVjJt9cSJtOI7W9UCBe+rSpL4ZgaIAADDfiqtqDByZXFyqylVbr+MRr43r+n3oKriXn5KgfyDSqFMPp+obURQAAPImPlBLJd0Y8R4ZPfXV8h7k7OjkKUzoG4mjkwEAuRJr+2EoN2iOWB6ItBtKXpinuwTTmNQ3PRQFAIDciGpl+Qq0N+JWelx/qNANtGe0JpjUN30UBQCAXIhqjlbagfYG1tAHruqJ35IXPh9xLf8m980J9hQAAOZcrO3lyW96cf2hQnn6wNxdgrP7ZhBFAQBgvkVP5bcktXzdGfxbBLXjP1agJ35LbnAvRx9DHNT7SGLBKctvSS2/fPL3Cs7sm2EsHwAA5ltlU51kc9ILtJXro5F78W2NvHZW3wzjTgEAAJBEUQAAAFIUBQAAQJK08OzZs6Nut6tut6tyuZx1ewAAM3br1q2sm4CMvXr1SpK0kCTJkSQ1Gg2tra1l2qgs7e/v6+bNm1k3IzPET/zEbzf+hYUFdXK9EW+yguOYj//o6EgSywcAACBFUQAAACRRFAAAgBRFAQAAkERRAAAAUhQFAIC5F9eXT/6uv+NoY/BP+0e1oWvVepxZOy9Tvw9OxzfcNzWNPvWgh6IAADDf4rrWG1XtJYk6SaK9wFXo9d/8Im14bQXN3rVOM5D8+9rOVV3QOxBpXQ8UuG9fezLQNzteqJUxhyFJFAUAgHlXXFVj4Fjg4lJVrtp6HUuKD9VWSTeOL15XKaNmXp7egUiN1VEHI1e0Ndg3i67UPtS4mohTEgEA+RIfqKWSPi1K0qo+9RytONJOck+vlz21g6a2Rr1/5l7/COlHGhc+RQEAIEdibT8M5QZNVdJnKpuJduRoxQklN9DeyN+ocyyqqeCFvf/2QnUmxM/yAQAgN6JaWb4CPT5+4+utt+/eTfcbVBu64yznbE/BGSqbvf0USaK9xYcTNxtSFAAAciGqOVppB9obWEOP6w8VuoF+nd42KK4+UuC21HhhqSo4MbTfYgSKAgDAnIu1vfx2QSBJxeslqXVwsrEufqFGSypdN7KEENdVHfi0QfyiodbgxstT2FMAAJhv0VP5LUnydcfxT573QnU2N7XjpfsJUm7Q1Fblre8yxyJtOJ6OI2yVVfB7cTZWl1Rtl1Vw+hddBc1NjQufogAAMN8qm+okmxMuJ+qMv5wDvY8kbo25uvY80do5vxPLBwAAQBJFAQAASFEUAAAASdLCs2fP/k97d8ybRrbGYfxBul+C6VBiCQnKqe50yFfaFOQLZFojpcnmFqZFtE6TKivFcjf+ApnibrGisytKkJAca7rhWwxbMHa8SXDMjcRk4PlJSGYORu+LC/4+54zOqigKiqIgiqKq65Ek7Vi32626BFVsNpsB0MjzfAWQpimDwVO3Iuyf+XxOp9OpuozK2L/92//h9t9oNFjmedVlVKYZBAff/2q1Alw+kCRJJUOBJEkCDAWSJKlkKJAkSYChQJIklQwFkqTay85f0gyC+8fpw7OBJ8MHY/t7bPLdZ9A//36Dk2Hw6DgYCiRJdZed8ybtc53nLPOc63FIEg+ZwDoQxAvGV+uxZdJmFJVje2PCaRDwhreMw00vGfJqERNvGi8ZCiRJ9dY6IX1wZHLruE/Igs8ZZLcLCPv8526w9xtxObY/1gcipSebjoPO+Pg+IX77mqMfvJOhQJK0X7IbprR53oLWszZMb/hnBphys1eh4HHZ+e+M2smTjov26GRJ0h5Z/1ccjq/oAfTOuIwDXgVJOR4ShtCusMKdys55M2pzmfeAHychQ4EkaW9MhhEjxlw/mErvneUsz+5fwWkQV1Lb7mV8/H1EO8l5wiQBYCiQJO2JyTDg1WLM9YP9Bd++6E8SYi6f+i1Zaxk3U0jigOTh5WlEM/3+52QokCTVXMbHl+UMwWOBgAmn8YOlhb233oD47v75+nNK+1cbNyUaCiRJ9Tb5g9EUYMS/g9GX63HC8vUt/WjEtLwUjjd/IdbXeknkfjZgGtEc/X+9GgokSfXWO2OZn20aJM1PdlrO7n09I7BJi8GnnMEjr/CWREmSBBgKJElSyVAgSZIAaFxcXKyKoqAoCqIoqroeSdKOdbvdqktQxWazGQCNPM9XAGmaMhg8tv1gv83nczqdTtVlVMb+7d/+D7f/RqPBMs+rLqMyzSA4+P5XqxXg8oEkSSoZCiRJEmAokCRJJUOBJEkCDAWSJKlkKJAk1V52/pJmEJSPIZN/DtK/Hws4nWx6lz21Rf+GAklSzU34kPa5znOWec5lnPBqOLkfO41GML5imecsk5gkfsnHrNKCd2i7/g0FkqSa6/HuwZHJraMQFrdkAJM/SYj5791pgb3XjMMpN4cSCrbs31AgSdojEz6MpoT9Y1pAdruA8IivDxBe3B5GKti2f49OliTV32RIM07WP8cJy5OvvwbvtHje3llVv6DH+3emQJJUf72z9Zp5nnN99P7bzYb3Mj4vdlzbL+Xx/g0FkqS90jruE7LgcwatZ22Y3vD1ZHn72aaZhP2ybf+GAklSvWXn9Idf5gWyv1KmtHneAnq/EZPwv/ubEf5gNI150auk0t3bsn/3FEiS6q11TH8R0QzuLoSMr85Yf+/1eHc1ph8FNO/HPnEomWDb/g0FkqSaazH4lDPYOHxCmp/ssqBfyxb9u3wgSZIAQ4EkSSoZCiRJEgCNi4uLVVEUFEVBFEVV1yNJ2rFut1t1CarYbDYDoJHn+QogTVMGg43bNPbefD6n0+lUXUZl7N/+7f9w+280GizzvOoyKtMMgoPvf7VaAS4fSJKkkqFAkiQBhgJJklQyFEiSJMBQIEmSSoYCSVLtZecvaQZB+fj22OS78f751+cFHoan9m8okCTV3IQPaZ/rPGeZ51zGCa/uT02ccBoEvOEt47DSIiuyXf+GAklSzfV49+mEVvmsdRTC4pbsbizPSU9am399r23Xv6FAkrRHJnwYTQn7xxxqDPgZHp0sSaq/yZBmnKx/jhOWBzsz8HOcKZAk1V/vjGW5p+D66P13NxvqxwwFkqS90jruE7Lg82HeaPBTDAWSpHrLzukPv8wLZH+lTGnz3BWErbmnQJJUb61j+ouIZnB3IWR8dUYPWN+SF5PcDU0jmiMIx1cHckfCdv0bCiRJNddi8Cln8N2x9S1573Zc0a9ju/5dPpAkSYChQJIklQwFkiQJgMbFxcWqKAqKoiCKoqrrkSTtWLfbrboEVWw2mwHwrxcvXgCQpimdTqfKmio1n8/t3/6rLqMy9n/Y/c9ms4Pu/9D//g/7d/lAkiQBhgJJklQyFEiSJMBQIEmSSn8DSwIyGtmyO1oAAAAASUVORK5CYII=;" vertex="1" parent="1">
          <mxGeometry x="340" y="250" width="477" height="634.77" as="geometry" />
        </mxCell>
      </root>
    </mxGraphModel>
  </diagram>
</mxfile>
